<svg width="612" height="612" xmlns="http://www.w3.org/2000/svg">

 <g>
  <title>background</title>
  <rect fill="none" id="canvas_background" height="402" width="582" y="-1" x="-1"/>
 </g>
 <g>
  <title>Layer 1</title>
  <path id="svg_1" d="m582.1,702l0,-59.7l29.9,-29.9l0,59.7l-29.9,29.9zm-582.1,-582.1l29.9,-29.9l59.7,0l-29.9,29.9l-59.7,0z" fill="#C0392B"/>
  <path id="svg_2" d="m29.9,90l231.4,0l350.7,350.8l0,231.4l-582.1,-582.2z" fill="#E74C3C"/>
  <text id="svg_3" font-size="97.01" font-family="'Lato-Regular'" fill="#FFF" transform="rotate(45.000999450683594 -29925.753906249993,24461.15234375) ">POPULAR</text>
  <path id="svg_4" fill="#FFF" d="m-19.6,324.4l-16.7,16.7l-11.6,-11.6l50,-50l17.6,17.6c3.5,3.5 6.1,7 7.8,10.3c1.7,3.4 2.6,6.6 2.8,9.7c0.2,3.1 -0.3,6 -1.6,8.8c-1.2,2.8 -3,5.3 -5.3,7.6c-2.5,2.5 -5.2,4.4 -8.1,5.7c-2.9,1.3 -5.9,1.8 -9,1.7c-3.1,-0.2 -6.4,-1.1 -9.7,-2.8c-3.4,-1.7 -6.8,-4.3 -10.2,-7.7l-6,-6zm8.8,-8.8l6,6c3,3 5.9,4.5 8.7,4.4s5.4,-1.5 8,-4c1.1,-1.1 2,-2.4 2.6,-3.6c0.6,-1.3 0.9,-2.6 0.9,-4s-0.4,-2.8 -1.1,-4.2c-0.7,-1.4 -1.8,-2.9 -3.2,-4.3l-6,-6l-15.9,15.7zm81,82c-3.6,3.6 -7.6,6.4 -12,8.2c-4.4,1.9 -8.8,2.8 -13.4,2.8s-9.1,-0.9 -13.6,-2.8s-8.7,-4.8 -12.6,-8.7c-3.9,-3.9 -6.8,-8.1 -8.7,-12.6s-2.8,-9 -2.8,-13.6s1,-9 2.8,-13.4c1.9,-4.4 4.6,-8.3 8.2,-12c3.6,-3.6 7.6,-6.4 12,-8.2c4.4,-1.9 8.8,-2.8 13.4,-2.8s9.1,0.9 13.6,2.8s8.7,4.8 12.6,8.7s6.8,8.1 8.6,12.6c1.9,4.5 2.8,9 2.8,13.6c0,4.5 -1,9 -2.8,13.4c-1.7,4.4 -4.5,8.4 -8.1,12zm-11.8,-11.9c2.5,-2.5 4.4,-5 5.7,-7.6c1.3,-2.6 2.1,-5.2 2.3,-7.8c0.2,-2.6 -0.2,-5.1 -1.3,-7.6c-1,-2.5 -2.6,-4.8 -4.8,-7c-2.2,-2.2 -4.6,-3.9 -7.1,-4.9s-5,-1.4 -7.6,-1.3c-2.6,0.2 -5.2,0.9 -7.8,2.3c-2.6,1.3 -5.2,3.2 -7.6,5.7c-2.5,2.5 -4.4,5 -5.7,7.7c-1.3,2.6 -2.1,5.2 -2.3,7.8s0.3,5.1 1.3,7.6s2.7,4.8 4.9,7.1c2.2,2.2 4.6,3.8 7,4.9s5,1.4 7.5,1.3c2.6,-0.2 5.2,-0.9 7.8,-2.3c2.6,-1.5 5.2,-3.4 7.7,-5.9zm20.7,37.3l-16.7,16.7l-11.6,-11.6l50,-50l17.6,17.6c3.5,3.5 6.1,7 7.8,10.3c1.7,3.4 2.6,6.6 2.8,9.7c0.2,3.1 -0.3,6 -1.6,8.8c-1.2,2.8 -3,5.3 -5.3,7.6c-2.5,2.5 -5.2,4.4 -8.1,5.7c-2.9,1.3 -5.9,1.8 -9,1.7c-3.1,-0.2 -6.4,-1.1 -9.7,-2.8c-3.4,-1.7 -6.8,-4.3 -10.2,-7.7l-6,-6zm8.7,-8.7l6,6c3,3 5.9,4.5 8.7,4.4c2.8,-0.1 5.4,-1.5 8,-4c1.1,-1.1 2,-2.4 2.6,-3.6c0.6,-1.3 0.9,-2.6 0.9,-4s-0.4,-2.8 -1.1,-4.2c-0.7,-1.4 -1.8,-2.9 -3.2,-4.3l-6,-6l-15.9,15.7zm36.7,69.2c1.6,1.6 3.2,2.7 4.9,3.4c1.7,0.7 3.5,1 5.3,0.9s3.6,-0.6 5.5,-1.6c1.8,-0.9 3.6,-2.3 5.4,-4l29.6,-29.6l11.6,11.6l-29.6,29.6c-3.1,3.1 -6.4,5.4 -9.9,6.9c-3.6,1.6 -7.2,2.3 -10.9,2.3s-7.4,-0.8 -11.1,-2.4s-7.2,-4.1 -10.5,-7.4s-5.8,-6.8 -7.4,-10.5s-2.4,-7.4 -2.4,-11.1s0.8,-7.3 2.4,-10.9c1.6,-3.5 3.9,-6.8 7,-9.9l29.6,-29.6l11.6,11.6l-29.6,29.6c-1.8,1.8 -3.1,3.6 -4,5.4s-1.5,3.7 -1.6,5.5s0.2,3.6 0.9,5.3c0.5,1.7 1.6,3.4 3.2,4.9zm40.7,40.5l18.5,18.5l-9.3,9.3l-30.1,-30.1l50,-50l11.6,11.6l-40.7,40.7zm61.3,79.8l-9,-9c-1,-1 -1.6,-2.1 -1.8,-3.2c-0.2,-1.1 0,-2.2 0.4,-3.2l5.8,-11.7l-19,-19l-11.7,5.8c-0.9,0.4 -1.9,0.5 -3.1,0.4s-2.2,-0.7 -3.2,-1.7l-9.1,-9.1l69.3,-30.6l11.9,11.9l-30.5,69.4zm-13,-51.2l13.7,13.7l9.1,-18.3c0.6,-1.2 1.2,-2.5 2,-4.1s1.7,-3.2 2.6,-5c-1.8,1 -3.4,1.9 -5,2.7c-1.6,0.8 -3,1.5 -4.2,2l-18.2,9zm47.1,48.4l-18.5,18.5l-11.6,-11.6l50,-50l16.3,16.3c3.6,3.6 6.3,7.1 8.1,10.4s2.9,6.4 3.1,9.3c0.3,2.9 -0.1,5.7 -1.2,8.2c-1.1,2.5 -2.7,4.9 -4.8,7c-1.6,1.6 -3.4,2.9 -5.2,3.9c-1.9,1 -3.9,1.7 -5.9,2.1c-2.1,0.4 -4.2,0.4 -6.4,0.1s-4.4,-0.9 -6.7,-1.9c0.4,1.2 0.6,2.4 0.7,3.6s0,2.5 -0.3,3.9l-6.8,28l-10.5,-10.5c-1.9,-1.9 -2.6,-4.1 -2,-6.4l6.2,-22.8c0.3,-1 0.3,-1.9 0.1,-2.7s-0.8,-1.6 -1.7,-2.5l-2.9,-2.9zm8,-8l4.7,4.7c1.6,1.6 3.1,2.7 4.6,3.4c1.5,0.7 3,1.1 4.4,1.1s2.8,-0.3 4,-0.9c1.3,-0.6 2.5,-1.5 3.6,-2.6c2.2,-2.2 3.2,-4.6 3,-7.3s-1.8,-5.5 -4.8,-8.5l-4.7,-4.7l-14.8,14.8z"/>
  <text style="cursor: text;" font-weight="bold" stroke="null" transform="rotate(45.041160583496094 385.5301818847657,328.8183288574219) matrix(3.1343179870386964,0,0,5.234120209616581,-401.6426420275889,-1443.5815051012214) " xml:space="preserve" text-anchor="start" font-family="'League Gothic', sans-serif" font-size="24" id="svg_6" y="346.991695" x="167.948309" stroke-opacity="null" stroke-width="0" fill="#ffffff">LIMITED BETA</text>
 </g>
</svg>